<?xml version="1.0" standalone="no"?>
<!DOCTYPE svg PUBLIC "-//W3C//DTD SVG 1.1//EN" "http://www.w3.org/Graphics/SVG/1.1/DTD/svg11.dtd" >
<svg xmlns="http://www.w3.org/2000/svg">
<metadata></metadata>
<defs>
<font id="sf_ui_displayultralight" horiz-adv-x="1179" >
<font-face units-per-em="2048" ascent="1638" descent="-410" />
<missing-glyph horiz-adv-x="381" />
<glyph horiz-adv-x="0" />
<glyph unicode="&#xd;" horiz-adv-x="0" />
<glyph unicode=" "  horiz-adv-x="381" />
<glyph unicode="&#x09;" horiz-adv-x="381" />
<glyph unicode="&#xa0;" horiz-adv-x="381" />
<glyph unicode="!" horiz-adv-x="500" d="M192 48q0 24 17 40.5t41 16.5t41 -16.5t17 -40.5t-17 -41t-41 -17t-41 17t-17 41zM223 1443h54l-1 -1032h-52z" />
<glyph unicode="&#x22;" horiz-adv-x="494" d="M99 998v445h48v-445h-48zM346 998v445h49v-445h-49z" />
<glyph unicode="#" horiz-adv-x="1229" d="M41 451l8 46h258l91 454h-244l8 46h244l94 453h48l-94 -453h405l94 453h48l-94 -453h283l-9 -46h-282l-91 -454h269l-9 -46h-269l-95 -451h-49l95 451h-405l-94 -451h-49l96 451h-257zM355 496h405l90 455h-404z" />
<glyph unicode="$" d="M81 382h49q7 -143 133 -245.5t302 -109.5v696l-5 2q-245 59 -344 140t-99 225q0 157 126.5 262t321.5 111v133h44v-133q184 -7 313.5 -111.5t134.5 -248.5h-50q-5 123 -121.5 215t-276.5 99v-655l6 -1q261 -60 366.5 -148t105.5 -245q0 -162 -135 -271t-343 -117v-156 h-44v156q-202 7 -341 122t-143 280zM166 1092q0 -124 89 -195t310 -124v644q-171 -5 -285 -98t-114 -227zM609 27q181 6 304.5 104t123.5 236q0 136 -95.5 213.5t-332.5 133.5v-687z" />
<glyph unicode="%" horiz-adv-x="1395" d="M50 1110q0 156 63.5 248.5t175.5 92.5t175.5 -92.5t63.5 -248.5t-63.5 -248.5t-175.5 -92.5t-175.5 92.5t-63.5 248.5zM98 1110q0 -136 50.5 -217.5t140.5 -81.5q89 0 139.5 81t50.5 218q0 136 -50.5 217.5t-139.5 81.5t-140 -81.5t-51 -217.5zM123 0l1081 1443h59 l-1081 -1443h-59zM867 331q0 156 63.5 248.5t175.5 92.5t175.5 -92.5t63.5 -248.5t-63.5 -248.5t-175.5 -92.5t-175.5 92.5t-63.5 248.5zM915 331q0 -136 50.5 -217.5t140.5 -81.5q89 0 139.5 81t50.5 218q0 136 -50.5 217.5t-139.5 81.5t-140 -81.5t-51 -217.5z" />
<glyph unicode="&#x26;" horiz-adv-x="1375" d="M72 361q0 224 273 371q1 0 30 15.5t58 30.5l29 16q-132 132 -180.5 211t-48.5 160q0 125 98 211t240 86q140 0 233.5 -83.5t93.5 -210.5q0 -103 -85 -196t-276 -189l478 -503q64 96 102 213.5t38 219.5v88h49v-87q0 -110 -42.5 -238t-111.5 -227l244 -249h-65l-209 215 q-94 -109 -228.5 -172t-272.5 -63q-198 0 -322.5 107t-124.5 274zM121 360q0 -142 111.5 -238t287.5 -96q122 0 252.5 61.5t211.5 157.5l-490 514q-119 -64 -120 -64q-253 -135 -253 -335zM282 1164q0 -71 46 -143t178 -205q343 164 343 351q0 105 -81 177.5t-198 72.5 q-116 0 -202 -75.5t-86 -177.5z" />
<glyph unicode="'" horiz-adv-x="246" d="M99 998v445h48v-445h-48z" />
<glyph unicode="(" horiz-adv-x="550" d="M147 597q0 247 69.5 462.5t199.5 383.5h53q-127 -169 -199.5 -389.5t-72.5 -456.5q0 -235 72 -456t200 -392h-54q-128 166 -198 383.5t-70 464.5z" />
<glyph unicode=")" horiz-adv-x="550" d="M82 -251q127 172 199.5 392.5t72.5 455.5t-72.5 455.5t-199.5 390.5h53q129 -168 198.5 -383.5t69.5 -462.5t-69.5 -464.5t-198.5 -383.5h-53z" />
<glyph unicode="*" horiz-adv-x="943" d="M121 869l308 176l-308 175l23 41l306 -180l-2 356h47l-2 -356l306 180l23 -40l-308 -175l308 -176l-23 -41l-306 180l2 -355h-47l2 355l-306 -180z" />
<glyph unicode="+" horiz-adv-x="1178" d="M104 554v47h461v503h49v-503h460v-47h-460v-517h-49v517h-461z" />
<glyph unicode="," horiz-adv-x="490" d="M172 -211l56 384h53l-67 -384h-42z" />
<glyph unicode="-" horiz-adv-x="865" d="M104 554v47h656v-47h-656z" />
<glyph unicode="." horiz-adv-x="488" d="M187 47q0 24 17 41t40 17q24 0 40.5 -17t16.5 -41q0 -23 -16.5 -40t-40.5 -17q-23 0 -40 17t-17 40z" />
<glyph unicode="/" horiz-adv-x="497" d="M0 -332l448 1775h49l-449 -1775h-48z" />
<glyph unicode="0" horiz-adv-x="1181" d="M85 722q0 341 136 541t369 200t369 -200t136 -541q0 -342 -136 -542t-369 -200t-369 200t-136 542zM135 722q0 -320 122.5 -508t332.5 -188t332.5 188t122.5 508t-122.5 507.5t-332.5 187.5q-209 0 -332 -187.5t-123 -507.5z" />
<glyph unicode="1" horiz-adv-x="774" d="M85 1143v57q297 188 399 250h49v-1450h-49v1390h-2q-17 -10 -397 -247z" />
<glyph unicode="2" horiz-adv-x="1138" d="M128 1062q5 175 127 288t307 113q181 0 304 -112t123 -278q0 -113 -64 -221t-242 -296l-476 -505v-4h845v-47h-919v41l514 547q172 181 232 280.5t60 203.5q0 146 -109 245.5t-269 99.5q-162 0 -270.5 -100.5t-112.5 -254.5h-50z" />
<glyph unicode="3" horiz-adv-x="1126" d="M85 357h50q1 -92 58 -168t154.5 -119.5t214.5 -43.5q184 0 306 103.5t122 261.5t-121 247.5t-335 89.5h-158v46h158q175 0 284 90.5t109 233.5q0 137 -108 228t-271 91q-154 0 -262.5 -90t-117.5 -224h-49q8 155 130 257.5t299 102.5q184 0 306.5 -103.5t122.5 -259.5 q0 -134 -82.5 -226t-226.5 -119v-4q170 -11 271 -108.5t101 -251.5q0 -178 -136 -294.5t-343 -116.5q-201 0 -337.5 108.5t-138.5 268.5z" />
<glyph unicode="4" horiz-adv-x="1164" d="M68 379v47q333 501 729 1023l68 1v-1025h237v-46h-237v-379h-49v379h-748zM128 425h688v965h-2q-342 -446 -686 -962v-3z" />
<glyph unicode="5" horiz-adv-x="1163" d="M126 341h50q18 -135 136.5 -225t278.5 -90q189 0 314.5 123t125.5 308q0 184 -123 308.5t-305 124.5q-126 0 -232 -60.5t-168 -167.5h-54l89 781h747v-47h-704l-74 -659h2q62 92 168 145.5t227 53.5q204 0 340.5 -137t136.5 -341q0 -206 -140 -342t-351 -136 q-182 0 -314 103t-150 258z" />
<glyph unicode="6" horiz-adv-x="1166" d="M90 680q0 359 142 571t383 212q172 0 293.5 -97t144.5 -254h-50q-22 133 -131 219t-257 86q-231 0 -357.5 -220t-118.5 -607h4q35 155 166.5 254.5t300.5 99.5q204 0 341.5 -136.5t137.5 -338.5q0 -209 -137.5 -349t-342.5 -140q-112 0 -207.5 43.5t-162.5 125.5 q-149 179 -149 531zM169 487q0 -195 126.5 -328t313.5 -133q182 0 306 127.5t124 315.5q0 182 -124.5 305.5t-307.5 123.5q-115 0 -216.5 -56t-161.5 -151.5t-60 -203.5z" />
<glyph unicode="7" horiz-adv-x="1074" d="M84 1396v47h910v-50l-698 -1393h-56l701 1394v2h-857z" />
<glyph unicode="8" horiz-adv-x="1178" d="M94 395q0 140 95.5 242.5t248.5 129.5v2q-133 28 -213 115t-80 208q0 163 124 267t319 104q196 0 320 -104t124 -267q0 -117 -81 -205t-211 -118v-2q152 -27 248 -130t96 -242q0 -183 -136.5 -299t-359.5 -116q-222 0 -358 116.5t-136 298.5zM144 395q0 -160 122 -264.5 t322 -104.5t323 104.5t123 264.5q0 152 -122.5 249t-322.5 97q-199 0 -322 -97t-123 -249zM195 1091q0 -131 111 -216.5t282 -85.5q172 0 283 85.5t111 216.5q0 140 -108 233t-285 93q-176 0 -285 -93t-109 -233z" />
<glyph unicode="9" horiz-adv-x="1166" d="M77 967q0 140 61.5 253.5t171.5 178t246 64.5q230 0 370 -172q149 -178 149 -528q0 -359 -140 -571t-384 -212q-177 0 -296 97.5t-142 252.5h50q22 -132 126.5 -218t261.5 -86q220 0 344 194.5t132 533.5q1 33 -1 99h-1h-1q-33 -150 -166.5 -252t-301.5 -102 q-207 0 -343 134t-136 334zM127 967q0 -176 122 -299t309 -123q117 0 218.5 57.5t161 152.5t59.5 201q0 193 -126.5 327t-314.5 134q-184 0 -306.5 -129t-122.5 -321z" />
<glyph unicode=":" horiz-adv-x="488" d="M187 47q0 24 17 41t40 17q24 0 40.5 -17t16.5 -41q0 -23 -16.5 -40t-40.5 -17q-23 0 -40 17t-17 40zM187 827q0 24 17 40.5t40 16.5q24 0 40.5 -16.5t16.5 -40.5q0 -23 -16.5 -40t-40.5 -17q-23 0 -40 17t-17 40z" />
<glyph unicode=";" horiz-adv-x="488" d="M163 -211l56 384h53l-68 -384h-41zM187 827q0 24 17 40.5t40 16.5q24 0 40.5 -16.5t16.5 -40.5q0 -23 -16.5 -40t-40.5 -17q-23 0 -40 17t-17 40z" />
<glyph unicode="&#x3c;" d="M191 510v44l796 576v-56l-736 -539v-5l736 -537v-56z" />
<glyph unicode="=" d="M106 368v46h967v-46h-967zM106 741v46h967v-46h-967z" />
<glyph unicode="&#x3e;" d="M191 -7l737 537v5l-737 539v56l796 -575v-45l-796 -573v56z" />
<glyph unicode="?" horiz-adv-x="911" d="M62 1105q10 154 118.5 255t266.5 101q164 0 273 -100t109 -250q0 -99 -49 -175.5t-166 -159.5q-105 -75 -141.5 -133t-36.5 -149v-97h-49v99q0 99 40.5 165t151.5 148q107 79 153 148.5t46 151.5q0 133 -95.5 219.5t-235.5 86.5q-136 0 -230 -85.5t-107 -224.5h-48z M357 48q0 24 17 40.5t40 16.5q25 0 41.5 -16.5t16.5 -40.5t-16.5 -41t-41.5 -17q-23 0 -40 17t-17 41z" />
<glyph unicode="@" horiz-adv-x="1727" d="M65 609q0 235 105 423t292 293.5t421 105.5q174 0 322 -56t252 -155t163 -240.5t59 -306.5q0 -238 -79 -369t-222 -131q-103 0 -167.5 57t-72.5 157h-4q-39 -102 -110.5 -156.5t-167.5 -54.5q-155 0 -253 116t-98 300q0 185 98.5 303t252.5 118q95 0 172 -55.5 t105 -144.5h4v178h48v-551q0 -110 49.5 -166.5t145.5 -56.5q120 0 186 119t66 338q0 155 -55.5 288t-154 226.5t-238 146t-303.5 52.5t-307 -59t-244 -161.5t-159.5 -247t-58.5 -310.5q0 -139 36 -262.5t104 -220t161.5 -166.5t212.5 -107t252 -37q212 0 326 35v-46 q-106 -33 -326 -33q-177 0 -328.5 61.5t-258 170.5t-166.5 265t-60 340zM553 591q0 -164 84.5 -267t219.5 -103q127 0 203.5 105t76.5 278q0 168 -75 266t-205 98q-129 0 -216.5 -108.5t-87.5 -268.5z" />
<glyph unicode="A" horiz-adv-x="1201" d="M20 0l555 1443h51l555 -1443h-56l-189 501h-671l-190 -501h-55zM283 547h635l-315 827h-5z" />
<glyph unicode="B" horiz-adv-x="1139" d="M124 0v1443h464q188 0 305 -96.5t117 -252.5q0 -133 -78.5 -225.5t-214.5 -119.5v-4q161 -16 265.5 -113.5t104.5 -252.5q0 -174 -130 -276.5t-355 -102.5h-478zM174 46h426q204 0 321 90.5t117 243.5q0 157 -123 248t-337 91h-404v-673zM174 765h401q174 0 279.5 89.5 t105.5 238.5q0 137 -103 220.5t-273 83.5h-410v-632z" />
<glyph unicode="C" horiz-adv-x="1303" d="M63 732q0 337 169.5 534t459.5 197q215 0 377 -140.5t181 -343.5h-49q-20 184 -167 310.5t-342 126.5q-266 0 -422.5 -184.5t-156.5 -499.5q0 -324 157.5 -514.5t421.5 -190.5q203 0 347 115t162 298h49q-11 -134 -86.5 -239t-199 -163t-272.5 -58q-287 0 -458 204 t-171 548z" />
<glyph unicode="D" horiz-adv-x="1313" d="M124 0v1443h436q330 0 510 -188t180 -533q0 -346 -180 -534t-510 -188h-436zM175 47h384q308 0 474.5 175t166.5 500q0 324 -166.5 499t-474.5 175h-384v-1349z" />
<glyph unicode="E" horiz-adv-x="1050" d="M124 0v1443h826v-47h-776v-632h740v-46h-740v-671h776v-47h-826z" />
<glyph unicode="F" horiz-adv-x="1020" d="M124 0v1443h817v-47h-767v-634h706v-47h-706v-715h-50z" />
<glyph unicode="G" horiz-adv-x="1332" d="M63 731q0 329 171 530.5t451 201.5q213 0 368.5 -118t195.5 -309h-49q-42 172 -183 276t-332 104q-258 0 -415 -188t-157 -497q0 -313 159 -508.5t413 -195.5q244 0 384.5 143t140.5 392v100h-531v46h580v-144q0 -272 -153.5 -428t-420.5 -156q-182 0 -323.5 94.5 t-220 265.5t-78.5 391z" />
<glyph unicode="H" horiz-adv-x="1296" d="M124 0v1443h50v-678h948v678h50v-1443h-50v718h-948v-718h-50z" />
<glyph unicode="I" horiz-adv-x="298" d="M124 0v1443h50v-1443h-50z" />
<glyph unicode="J" horiz-adv-x="933" d="M41 315h49q7 -128 98.5 -208.5t229.5 -80.5q159 0 250 95t91 263v1059h50v-1062q0 -185 -104.5 -293.5t-286.5 -108.5q-160 0 -266 94t-111 242z" />
<glyph unicode="K" horiz-adv-x="1107" d="M124 0v1443h50v-836h4l784 836h64l-594 -635l664 -808h-64l-636 773l-222 -237v-536h-50z" />
<glyph unicode="L" horiz-adv-x="1009" d="M124 0v1443h50v-1396h775v-47h-825z" />
<glyph unicode="M" horiz-adv-x="1576" d="M124 0v1443h53l609 -1380h4l606 1380h55v-1443h-49v1328h-4l-584 -1327h-53l-584 1327h-4v-1328h-49z" />
<glyph unicode="N" horiz-adv-x="1315" d="M124 0v1443h55l958 -1348h4v1348h50v-1443h-46l-967 1359h-4v-1359h-50z" />
<glyph unicode="O" horiz-adv-x="1398" d="M63 722q0 340 172 540.5t464 200.5q291 0 463.5 -200.5t172.5 -540.5q0 -341 -172 -541.5t-464 -200.5q-293 0 -464.5 200.5t-171.5 541.5zM113 722q0 -318 159 -506.5t427 -188.5q267 0 426.5 188.5t159.5 506.5t-159 506t-427 188q-269 0 -427.5 -187.5t-158.5 -506.5z " />
<glyph unicode="P" horiz-adv-x="1087" d="M124 0v1443h448q212 0 337.5 -114t125.5 -307t-126 -307t-338 -114h-397v-601h-50zM174 648h394q192 0 304.5 100.5t112.5 273.5q0 174 -112.5 274t-304.5 100h-394v-748z" />
<glyph unicode="Q" horiz-adv-x="1398" d="M63 722q0 340 172 540.5t464 200.5q291 0 463.5 -200.5t172.5 -540.5q0 -224 -79 -393.5t-224 -260.5l183 -250h-59l-166 227q-130 -65 -291 -65q-293 0 -464.5 200.5t-171.5 541.5zM113 722q0 -318 159 -506.5t427 -188.5q145 0 263 58l-201 275h59l183 -252 q136 84 208.5 243t72.5 371q0 317 -159 505.5t-426 188.5q-268 0 -427 -188.5t-159 -505.5z" />
<glyph unicode="R" horiz-adv-x="1124" d="M124 0v1443h448q216 0 340 -108.5t124 -298.5q0 -158 -92 -263t-255 -133l381 -640h-57l-376 632q-36 -2 -66 -2h-397v-630h-50zM174 676h397q193 0 303.5 96.5t110.5 263.5q0 170 -110 265t-305 95h-396v-720z" />
<glyph unicode="S" horiz-adv-x="1114" d="M52 382h50q8 -156 139.5 -256t329.5 -100q193 0 316 99.5t123 251.5q0 120 -85 193t-277 121l-167 42q-202 50 -295.5 133.5t-93.5 215.5q0 163 135 272t326 109q200 0 336 -103.5t143 -257.5h-50q-7 135 -129 225t-300 90q-172 0 -291.5 -95.5t-119.5 -239.5 q0 -114 85 -185t270 -117l165 -41q207 -52 302.5 -136.5t95.5 -223.5q0 -175 -136.5 -287t-354.5 -112q-219 0 -364 113t-153 289z" />
<glyph unicode="T" horiz-adv-x="1117" d="M13 1396v47h1091v-47h-521v-1396h-49v1396h-521z" />
<glyph unicode="U" horiz-adv-x="1307" d="M124 499v944h50v-943q0 -218 129.5 -345.5t349.5 -127.5q221 0 350.5 127.5t129.5 345.5v943h50v-944q0 -237 -143.5 -378t-386.5 -141t-386 141t-143 378z" />
<glyph unicode="V" horiz-adv-x="1203" d="M20 1443h55l524 -1372h4l525 1372h54l-555 -1443h-51z" />
<glyph unicode="W" horiz-adv-x="1777" d="M41 1443h52l374 -1344h4l396 1344h43l395 -1344h5l374 1344h51l-406 -1443h-40l-398 1338h-5l-398 -1338h-41z" />
<glyph unicode="X" horiz-adv-x="1190" d="M41 0l524 721v1l-523 721h60l493 -680h1l494 680h59l-523 -721l522 -722h-60l-492 680h-1l-495 -680h-59z" />
<glyph unicode="Y" horiz-adv-x="1148" d="M21 1443h60l492 -758h4l491 758h59l-527 -812v-631h-50v631z" />
<glyph unicode="Z" horiz-adv-x="1147" d="M64 0v42l954 1350v4h-925v47h989v-43l-953 -1349v-4h954v-47h-1019z" />
<glyph unicode="[" horiz-adv-x="556" d="M149 -235v1678h346v-45h-297v-1589h312v-44h-361z" />
<glyph unicode="\" horiz-adv-x="497" d="M0 1443h49l448 -1775h-48z" />
<glyph unicode="]" horiz-adv-x="556" d="M46 -191h312v1589h-297v45h346v-1678h-361v44z" />
<glyph unicode="^" horiz-adv-x="749" d="M52 825l302 596h41l302 -596h-55l-266 530h-3l-266 -530h-55z" />
<glyph unicode="_" horiz-adv-x="801" d="M-66 -152h933v-44h-933v44z" />
<glyph unicode="`" horiz-adv-x="686" d="M210 1557h63l236 -303h-53z" />
<glyph unicode="a" horiz-adv-x="1021" d="M90 286q0 137 96 214t284 92l389 30v97q0 153 -86.5 240t-238.5 87q-151 0 -244 -74t-114 -209h-47q17 153 126 241t279 88q173 0 273.5 -99.5t100.5 -270.5v-722h-49v245h-1q-39 -116 -153.5 -188.5t-258.5 -72.5q-157 0 -256.5 84.5t-99.5 217.5zM140 286 q0 -111 87.5 -183.5t221.5 -72.5q169 0 289.5 107.5t120.5 258.5v182l-381 -29q-165 -13 -251.5 -80t-86.5 -183z" />
<glyph unicode="b" horiz-adv-x="1116" d="M130 0v1506h49v-745h2q38 150 151.5 240.5t266.5 90.5q200 0 326 -153.5t126 -399.5t-126 -400.5t-325 -154.5q-151 0 -265.5 91t-153.5 244h-2v-319h-49zM179 537q0 -222 116.5 -364t298.5 -142q181 0 294.5 141t113.5 367q0 225 -113 366t-294 141q-182 0 -299 -143 t-117 -366z" />
<glyph unicode="c" horiz-adv-x="1019" d="M65 538q0 254 127 404t342 150q163 0 280 -93.5t144 -238.5h-50q-26 126 -128.5 206t-245.5 80q-193 0 -306 -137.5t-113 -370.5t112.5 -370t306.5 -137q145 0 246 76t126 200h50q-26 -145 -141 -234t-281 -89q-215 0 -342 149.5t-127 404.5z" />
<glyph unicode="d" horiz-adv-x="1126" d="M65 538q0 246 128.5 400t330.5 154q156 0 272 -95t148 -236h2v745h50v-1506h-46v322h-2q-35 -146 -151.5 -242t-272.5 -96q-202 0 -330.5 154.5t-128.5 399.5zM115 539q0 -226 115 -367t296 -141q184 0 302 141.5t118 365.5t-118 366t-302 142q-181 0 -296 -141 t-115 -366z" />
<glyph unicode="e" horiz-adv-x="1056" d="M65 538q0 250 128 402t340 152q205 0 331.5 -143t126.5 -375v-38h-876v-2q0 -237 116 -370.5t311 -133.5q156 0 257.5 75t126.5 194h51q-28 -140 -144 -227.5t-292 -87.5q-219 0 -347.5 147t-128.5 407zM116 581h825q0 207 -112.5 336t-295.5 129q-180 0 -294 -127.5 t-123 -337.5z" />
<glyph unicode="f" horiz-adv-x="509" d="M20 1031v45h150v169q0 123 58.5 181.5t164.5 58.5q47 0 74 -10v-46q-30 10 -73 10q-174 0 -174 -201v-162h237v-45h-237v-1031h-50v1031h-150z" />
<glyph unicode="g" horiz-adv-x="1106" d="M65 538q0 246 126.5 400t327.5 154q156 0 270 -95.5t149 -241.5h2v321h46v-1076q0 -165 -123 -259.5t-321 -94.5q-167 0 -277 64t-134 169h53q21 -83 118.5 -135t242.5 -52q175 0 283.5 82t108.5 224v318h-2q-33 -142 -147 -236.5t-269 -94.5q-202 0 -328 153.5 t-126 399.5zM115 537q0 -225 112.5 -365.5t293.5 -140.5q184 0 300 141.5t116 365.5t-116 366t-300 142q-181 0 -293.5 -141t-112.5 -368z" />
<glyph unicode="h" horiz-adv-x="1075" d="M130 0v1506h49v-684h2q35 120 139.5 195t243.5 75q178 0 288 -108.5t110 -288.5v-695h-50v693q0 163 -97.5 258t-256.5 95q-166 0 -272.5 -112t-106.5 -289v-645h-49z" />
<glyph unicode="i" horiz-adv-x="309" d="M106 1414q0 20 14.5 34t34.5 14t34 -14t14 -34t-14.5 -34t-33.5 -14q-20 0 -34.5 14t-14.5 34zM130 0v1076h49v-1076h-49z" />
<glyph unicode="j" horiz-adv-x="309" d="M-113 -297h27q113 0 164.5 50t51.5 163v1160h49v-1156q0 -139 -65 -200.5t-198 -61.5h-29v45zM106 1414q0 20 14.5 34t34.5 14t34 -14t14 -34t-14.5 -34t-33.5 -14q-20 0 -34.5 14t-14.5 34z" />
<glyph unicode="k" horiz-adv-x="913" d="M130 0v1506h49v-1003h2l645 573h70l-517 -463l519 -613h-65l-493 583l-161 -142v-441h-49z" />
<glyph unicode="l" horiz-adv-x="309" d="M130 0v1506h49v-1506h-49z" />
<glyph unicode="m" horiz-adv-x="1628" d="M120 0v1076h46v-254h2q29 119 115.5 194.5t214.5 75.5q129 0 218.5 -78t111.5 -193h2q25 113 118 192t225 79q154 0 248 -101t94 -270v-721h-49v710q0 156 -80.5 246t-219.5 90q-145 0 -234.5 -106t-89.5 -276v-664h-49v708q0 151 -84 244.5t-215 93.5 q-145 0 -235 -112.5t-90 -300.5v-633h-49z" />
<glyph unicode="n" horiz-adv-x="1063" d="M120 0v1076h46v-254h2q35 121 139 195.5t243 74.5q179 0 289.5 -108t110.5 -288v-696h-49v694q0 161 -99 256.5t-259 95.5q-165 0 -269.5 -112t-104.5 -288v-646h-49z" />
<glyph unicode="o" horiz-adv-x="1078" d="M65 538q0 253 130.5 403.5t343.5 150.5t343.5 -150.5t130.5 -403.5t-130.5 -403.5t-343.5 -150.5q-214 0 -344 150.5t-130 403.5zM115 538q0 -233 116 -370t308 -137t308.5 137.5t116.5 369.5q0 233 -116.5 370.5t-308.5 137.5t-308 -137.5t-116 -370.5z" />
<glyph unicode="p" horiz-adv-x="1106" d="M120 -340v1416h46v-321h2q34 145 148.5 241t270.5 96q201 0 327.5 -154t126.5 -400q0 -247 -126 -400.5t-328 -153.5q-155 0 -269 94.5t-147 236.5h-2v-655h-49zM169 538q0 -224 116 -365.5t299 -141.5q181 0 294.5 140.5t113.5 365.5q0 226 -113.5 367.5t-294.5 141.5 q-183 0 -299 -142t-116 -366z" />
<glyph unicode="q" horiz-adv-x="1116" d="M65 538q0 245 128.5 399.5t330.5 154.5q156 0 272.5 -96t151.5 -241h2v321h46v-1416h-50v655h-2q-32 -141 -148.5 -236t-271.5 -95q-202 0 -330.5 154t-128.5 400zM115 537q0 -224 115 -365t296 -141q184 0 302 141.5t118 365.5t-118 366t-302 142q-181 0 -296 -142 t-115 -367z" />
<glyph unicode="r" horiz-adv-x="603" d="M120 0v1076h46v-223h2q35 117 110.5 178t186.5 61q59 0 108 -21v-51q-50 25 -116 25q-132 0 -210 -104.5t-78 -270.5v-670h-49z" />
<glyph unicode="s" horiz-adv-x="905" d="M56 304h50q10 -115 109 -194.5t242 -79.5q145 0 243.5 68.5t98.5 177.5q0 93 -62 148t-205 89l-169 39q-138 33 -204.5 94t-66.5 162q0 124 105 204t257 80q161 0 262.5 -88.5t115.5 -239.5h-48q-14 126 -101.5 204t-228.5 78q-129 0 -221 -67t-92 -170q0 -85 57 -133.5 t182 -77.5l167 -40q160 -39 231 -104.5t71 -174.5q0 -131 -110 -213t-281 -82q-169 0 -281.5 92.5t-120.5 227.5z" />
<glyph unicode="t" horiz-adv-x="527" d="M20 1031v45h160v288h49v-288h228v-45h-228v-796q0 -102 38.5 -146t124.5 -44l41 1h42v-46h-42q-42 -1 -44 -1q-110 0 -159.5 55t-49.5 180v797h-160z" />
<glyph unicode="u" horiz-adv-x="1063" d="M113 375v701h49v-694q0 -164 96.5 -257.5t253.5 -93.5q163 0 272.5 109t109.5 287v649h50v-1076h-46v251h-2q-33 -114 -143.5 -190.5t-246.5 -76.5q-175 0 -284 106.5t-109 284.5z" />
<glyph unicode="v" horiz-adv-x="888" d="M2 1076h53l388 -1028h2l388 1028h53l-408 -1076h-68z" />
<glyph unicode="w" horiz-adv-x="1406" d="M2 1076h55l294 -1021h2l317 1021h66l317 -1021h2l294 1021h55l-317 -1076h-66l-317 1016h-2l-317 -1016h-66z" />
<glyph unicode="x" horiz-adv-x="869" d="M2 0l403 548l-402 528h62l369 -489h2l369 489h62l-402 -527l401 -549h-60l-370 506h-3l-370 -506h-61z" />
<glyph unicode="y" horiz-adv-x="888" d="M2 1076h54l387 -1029h2l388 1029h54l-417 -1101q-74 -195 -130 -256.5t-162 -61.5q-26 0 -47 9v47q22 -9 53 -9q70 0 115.5 46t89.5 159l28 72z" />
<glyph unicode="z" horiz-adv-x="910" d="M58 0v47l734 982v2h-734v45h794v-47l-736 -982v-2h736v-45h-794z" />
<glyph unicode="{" horiz-adv-x="682" d="M89 583v91q96 0 135 51t39 178v292q0 167 74.5 236.5t252.5 69.5h48v-46h-71q-132 0 -193.5 -58.5t-61.5 -182.5v-347q0 -110 -39.5 -164.5t-126.5 -62.5v-20q87 -8 126.5 -62.5t39.5 -165.5v-412q0 -242 255 -242h71v-45h-48q-176 0 -251.5 72.5t-75.5 242.5v349 q0 126 -39 176t-135 50z" />
<glyph unicode="|" horiz-adv-x="329" d="M141 -332v1775h47v-1775h-47z" />
<glyph unicode="}" horiz-adv-x="683" d="M44 -262h71q255 0 255 242v412q0 111 39.5 165.5t126.5 62.5v20q-87 8 -126.5 62.5t-39.5 164.5v347q0 124 -62 182.5t-193 58.5h-71v46h48q178 0 252.5 -69.5t74.5 -236.5v-292q0 -127 39 -178t135 -51v-91q-96 0 -135 -50t-39 -176v-349q0 -170 -75.5 -242.5 t-251.5 -72.5h-48v45z" />
<glyph unicode="~" d="M142 560q0 125 60.5 201.5t159.5 76.5q54 0 101 -25.5t128 -98.5q67 -61 116 -87t96 -26q75 0 128 70t57 174h49q0 -122 -68.5 -206.5t-166.5 -84.5q-64 0 -112 24.5t-130 99.5q-72 66 -113 89.5t-85 23.5q-75 0 -122.5 -64t-49.5 -167h-48z" />
<glyph unicode="&#xa2;" d="M106 692q0 247 136 396t346 157v207h49v-207q165 -7 288 -97.5t148 -234.5h-50q-26 129 -142.5 208t-269.5 79q-197 0 -326.5 -137.5t-129.5 -370.5q0 -234 129 -372t327 -138q153 0 270 75.5t140 203.5h50q-23 -142 -145.5 -229.5t-288.5 -94.5v-224h-49v225 q-138 6 -246 72t-172 191t-64 291z" />
<glyph unicode="&#xa3;" d="M57 0v48q80 21 142 49t115.5 70t82.5 102.5t29 136.5q0 105 -68 284h-257v46h240q-27 71 -42.5 116t-29.5 113t-14 129q0 171 117.5 275t327.5 104q105 0 193.5 -18.5t132.5 -41.5v-49q-47 26 -133 44.5t-191 18.5q-190 0 -293.5 -92t-103.5 -242q0 -60 15.5 -129 t29 -108t43.5 -120h468v-46h-451q64 -168 64 -284q0 -77 -28 -141t-75 -105.5t-95.5 -67.5t-102.5 -42v-4h950v-46h-1066z" />
<glyph unicode="&#xa5;" d="M37 1443h60l491 -730h4l491 730h59l-499 -743h330v-44h-358v-220h358v-45h-358v-391h-50v391h-359v45h359v220h-359v44h331z" />
<glyph unicode="&#xa7;" horiz-adv-x="943" d="M79 581q0 106 74 179t204 95v3q-128 34 -189 97t-61 161q0 120 101.5 197.5t257.5 77.5q158 0 263 -71t119 -189h-50q-14 97 -105.5 156t-226.5 59q-134 0 -221.5 -65t-87.5 -164q0 -89 65 -144t205 -86l106 -25q171 -38 251 -107t80 -179q0 -106 -74.5 -179.5 t-205.5 -95.5v-3q130 -34 191.5 -96.5t61.5 -160.5q0 -120 -101.5 -198t-257.5 -78q-159 0 -264 72t-118 189h49q15 -97 106.5 -156t226.5 -59q134 0 222 64.5t88 164.5q0 88 -65 143.5t-205 86.5l-106 24q-172 39 -252.5 108.5t-80.5 178.5zM130 586q0 -94 70 -152.5 t223 -93.5l77 -17q139 2 226.5 71.5t87.5 176.5q0 94 -69.5 152t-223.5 93l-77 17q-139 -1 -226.5 -70.5t-87.5 -176.5z" />
<glyph unicode="&#xa8;" horiz-adv-x="686" d="M149 1308q0 22 16 37.5t39 15.5q22 0 38 -15.5t16 -37.5t-16 -38t-38 -16t-38.5 16t-16.5 38zM428 1308q0 22 16 37.5t38 15.5q23 0 39 -15.5t16 -37.5t-16.5 -38t-38.5 -16t-38 16t-16 38z" />
<glyph unicode="&#xa9;" horiz-adv-x="1739" d="M107 626q0 161 59.5 303t161 243t242.5 159.5t300 58.5t300.5 -58.5t243 -159.5t160.5 -243t59 -303q0 -160 -59 -302t-160.5 -243.5t-243 -160t-300.5 -58.5t-300 58.5t-242.5 159.5t-161 243.5t-59.5 302.5zM154 626q0 -151 55.5 -285t151 -228.5t228 -149.5t281.5 -55 q199 0 363 93t258.5 258t94.5 367q0 203 -94.5 368t-258.5 257.5t-363 92.5q-149 0 -281.5 -54.5t-228 -149t-151 -228.5t-55.5 -286zM470 633q0 198 110 313.5t283 115.5q139 0 234.5 -75t116.5 -184h-47q-26 95 -106 155t-198 60q-152 0 -249 -103.5t-97 -281.5 q0 -179 97 -285t249 -106q124 0 202.5 57t99.5 147h48q-24 -112 -116 -180t-234 -68q-172 0 -282.5 118t-110.5 317z" />
<glyph unicode="&#xaa;" horiz-adv-x="877" d="M112 816q0 108 77 169.5t225 73.5l303 24v88q0 111 -70 176.5t-190 65.5q-113 0 -180.5 -50.5t-84.5 -131.5h-46q16 99 96.5 161t215.5 62q142 0 224.5 -76t82.5 -206v-594h-45v193h-5q-31 -87 -120 -142.5t-198 -55.5q-128 0 -206.5 67t-78.5 176zM159 817 q0 -90 67.5 -146t175.5 -56q130 0 223 81.5t93 196.5v151l-294 -25q-129 -11 -197 -62.5t-68 -139.5z" />
<glyph unicode="&#xab;" horiz-adv-x="1150" d="M158 566v4l376 408h63l-370 -407v-6l370 -407h-63zM553 566v4l377 408h62l-369 -407v-6l369 -407h-62z" />
<glyph unicode="&#xac;" d="M107 677v46h965v-540h-48v494h-917z" />
<glyph unicode="&#xad;" horiz-adv-x="865" d="M104 554v47h656v-47h-656z" />
<glyph unicode="&#xae;" horiz-adv-x="1247" d="M127 959q0 136 66 250.5t180 180t250 65.5q208 0 352.5 -144t144.5 -352q0 -207 -144.5 -351.5t-352.5 -144.5q-136 0 -250 66t-180 180t-66 250zM171 959q0 -190 131 -321t321 -131t321.5 131t131.5 321t-131 321t-322 131q-190 0 -321 -131t-131 -321zM437 706v541h197 q77 0 126 -43.5t49 -120.5q0 -65 -38.5 -107.5t-91.5 -48.5l157 -221h-53l-153 215h-149v-215h-44zM481 961h140q70 0 107.5 34t37.5 89t-38.5 88.5t-106.5 33.5h-140v-245z" />
<glyph unicode="&#xb0;" horiz-adv-x="550" d="M71 1242q0 84 59.5 144t143.5 60q85 0 145 -60t60 -144t-60.5 -144t-144.5 -60t-143.5 59.5t-59.5 144.5zM111 1242q0 -68 48 -116t115 -48q68 0 116 48t48 116t-48 115.5t-116 47.5q-67 0 -115 -48t-48 -115z" />
<glyph unicode="&#xb1;" d="M104 113v46h970v-46h-970zM104 688v45h462v344h47v-344h461v-45h-461v-367h-47v367h-462z" />
<glyph unicode="&#xb4;" horiz-adv-x="686" d="M177 1254l236 303h63l-246 -303h-53z" />
<glyph unicode="&#xb6;" horiz-adv-x="1155" d="M189 1007q0 197 128.5 316.5t346.5 119.5h69v-1589h-50v721h-20q-210 0 -342 122.5t-132 309.5zM915 -146v1589h50v-1589h-50z" />
<glyph unicode="&#xb7;" horiz-adv-x="488" d="M187 595q0 24 17 41t40 17q24 0 40.5 -17t16.5 -41q0 -23 -16.5 -40t-40.5 -17q-23 0 -40 17t-17 40z" />
<glyph unicode="&#xb8;" horiz-adv-x="686" d="M161 -402q45 -17 121 -17q72 0 121.5 36t49.5 88q0 54 -42.5 83.5t-121.5 29.5h-50v33l69 155l44 -6l-59 -140q94 0 150 -42t56 -112q0 -74 -60 -120.5t-156 -47.5q-76 0 -122 17v43z" />
<glyph unicode="&#xba;" horiz-adv-x="976" d="M111 1012q0 203 102.5 322.5t273.5 119.5q172 0 275 -119.5t103 -322.5q0 -201 -103 -320.5t-275 -119.5t-274 119t-102 321zM159 1012q0 -181 89.5 -287.5t238.5 -106.5t239.5 106.5t90.5 287.5q0 183 -90.5 290.5t-239.5 107.5t-238.5 -107.5t-89.5 -290.5z" />
<glyph unicode="&#xbb;" horiz-adv-x="1150" d="M158 158l370 407v6l-370 407h63l376 -408v-4l-376 -408h-63zM553 158l370 407v6l-370 407h63l376 -408v-4l-376 -408h-63z" />
<glyph unicode="&#xf7;" d="M104 555v45h970v-45h-970zM520 222q0 30 20.5 50t49.5 20t49.5 -20t20.5 -50q0 -29 -20.5 -49.5t-49.5 -20.5q-28 0 -49 21t-21 49zM520 911q0 30 20.5 50t49.5 20t49.5 -20t20.5 -50q0 -29 -20.5 -49.5t-49.5 -20.5q-28 0 -49 20.5t-21 49.5z" />
<glyph unicode="&#x192;" d="M45 16v48q27 -15 73 -26t86 -11q124 0 193.5 72.5t97.5 229.5l76 434h-415v46h423l54 313q31 177 113 259t226 82q45 0 92 -9.5t69 -23.5v-49q-22 15 -67.5 25.5t-90.5 10.5q-124 0 -194.5 -72t-97.5 -228l-53 -308h431v-46h-439l-77 -441q-31 -176 -113 -258.5 t-226 -82.5q-42 0 -89.5 10.5t-71.5 24.5z" />
<glyph unicode="&#x2c6;" horiz-adv-x="686" d="M56 1254l265 303h44l265 -303h-56l-230 264h-2l-230 -264h-56z" />
<glyph unicode="&#x2da;" horiz-adv-x="689" d="M180 1415q0 68 48.5 116.5t116.5 48.5q67 0 115.5 -48.5t48.5 -116.5t-48.5 -117t-115.5 -49q-68 0 -116.5 49t-48.5 117zM218 1415q0 -53 36.5 -90t90.5 -37q53 0 89.5 37t36.5 90t-36.5 90t-89.5 37q-54 0 -90.5 -37t-36.5 -90z" />
<glyph unicode="&#x2dc;" horiz-adv-x="686" d="M64 1264q0 92 36 146.5t106 54.5q36 0 68 -17t55.5 -41.5t46 -49.5t49.5 -42t55 -17q97 0 97 158h45q0 -93 -36 -147.5t-106 -54.5q-36 0 -68 17.5t-55.5 42t-46 49t-49 42t-55.5 17.5q-97 0 -97 -158h-45z" />
<glyph unicode="&#x3a9;" horiz-adv-x="1503" d="M101 0v47h476v4q-473 231 -473 715q0 152 47.5 282t132 221t205.5 142.5t264 51.5q190 0 337.5 -89t228 -247.5t80.5 -360.5q0 -482 -473 -715v-4h476v-47h-528v75q244 115 359.5 283.5t115.5 406.5q0 187 -74.5 335.5t-211 232t-310.5 83.5q-265 0 -432 -181.5 t-167 -469.5q0 -238 115.5 -406.5t359.5 -283.5v-75h-528z" />
<glyph unicode="&#x3c0;" horiz-adv-x="1278" d="M74 1029v47h1128v-47h-219v-838q0 -80 27.5 -117.5t88.5 -37.5q34 0 67 9l5 -44q-23 -10 -78 -10q-82 0 -120.5 47.5t-38.5 147.5v843h-597v-1028h-49v1028h-214z" />
<glyph unicode="&#x401;" horiz-adv-x="1043" d="M134 0v1443h826v-47h-776v-632h740v-46h-740v-671h776v-47h-826zM353 1610q0 22 16 37.5t39 15.5q22 0 38 -15.5t16 -37.5t-16 -38t-38 -16t-38.5 16t-16.5 38zM632 1610q0 22 16 37.5t38 15.5q23 0 39 -15.5t16 -37.5t-16.5 -38t-38.5 -16t-38 16t-16 38z" />
<glyph unicode="&#x402;" horiz-adv-x="1524" d="M23 1396v47h1091v-47h-522v-694h5q71 72 173.5 113t218.5 41q203 0 322.5 -120t119.5 -320q0 -190 -104 -308t-272 -118q-70 0 -103 10v47q30 -9 101 -9q150 0 239.5 104.5t89.5 273.5q0 181 -106.5 287t-287.5 106q-117 0 -223.5 -48.5t-172.5 -127.5v-633h-49v1396 h-520z" />
<glyph unicode="&#x403;" horiz-adv-x="1011" d="M134 0v1443h815v-47h-765v-1396h-50zM471 1554l293 287h66l-303 -287h-56z" />
<glyph unicode="&#x404;" horiz-adv-x="1322" d="M73 732q0 337 169.5 534t459.5 197q215 0 377 -137t181 -335h-49q-20 179 -167 302t-342 123q-260 0 -415.5 -175t-163.5 -476h772v-47h-772q3 -317 160.5 -504t418.5 -187q202 0 346 111.5t162 289.5h49q-17 -197 -174 -322.5t-383 -125.5q-287 0 -458 204t-171 548z " />
<glyph unicode="&#x405;" horiz-adv-x="1134" d="M62 382h50q8 -156 139.5 -256t329.5 -100q193 0 316 99.5t123 251.5q0 120 -85 193t-277 121l-167 42q-202 50 -295.5 133.5t-93.5 215.5q0 163 135 272t326 109q200 0 336 -103.5t143 -257.5h-50q-7 135 -129 225t-300 90q-172 0 -291.5 -95.5t-119.5 -239.5 q0 -114 85 -185t270 -117l165 -41q207 -52 302.5 -136.5t95.5 -223.5q0 -175 -136.5 -287t-354.5 -112q-219 0 -364 113t-153 289z" />
<glyph unicode="&#x406;" horiz-adv-x="318" d="M134 0v1443h50v-1443h-50z" />
<glyph unicode="&#x407;" horiz-adv-x="318" d="M-35 1610q0 22 16 37.5t39 15.5q22 0 38 -15.5t16 -37.5t-16 -38t-38 -16t-38.5 16t-16.5 38zM134 0v1443h50v-1443h-50zM244 1610q0 22 16 37.5t38 15.5q23 0 39 -15.5t16 -37.5t-16.5 -38t-38.5 -16t-38 16t-16 38z" />
<glyph unicode="&#x408;" horiz-adv-x="953" d="M51 315h49q7 -128 98.5 -208.5t229.5 -80.5q159 0 250 95t91 263v1059h50v-1062q0 -185 -104.5 -293.5t-286.5 -108.5q-160 0 -266 94t-111 242z" />
<glyph unicode="&#x409;" horiz-adv-x="2039" d="M17 0v47q1 -1 7.5 -3t20 -4t26.5 -2q54 0 94.5 31.5t65 90.5t37.5 131.5t19 165.5l60 986h768v-603h396q212 0 338 -113.5t126 -306.5q0 -192 -126 -306t-338 -114h-446v1396h-670l-57 -946q-4 -79 -14 -143t-29.5 -124.5t-48 -101.5t-72.5 -65.5t-101 -24.5q-9 0 -18 1 t-15 2.5t-11.5 2.5t-8.5 2zM1115 47h393q191 0 304.5 101.5t113.5 271.5t-113.5 271.5t-304.5 101.5h-393v-746z" />
<glyph unicode="&#x40a;" horiz-adv-x="2083" d="M134 0v1443h50v-678h927v678h50v-678h396q213 0 338.5 -101t125.5 -273q0 -179 -125.5 -285t-338.5 -106h-446v718h-927v-718h-50zM1161 47h393q192 0 305 93.5t113 250.5q0 150 -113.5 238.5t-304.5 88.5h-393v-671z" />
<glyph unicode="&#x40b;" horiz-adv-x="1544" d="M23 1396v47h1091v-47h-522v-693h5q75 73 176.5 113t215.5 40q195 0 314 -126.5t119 -334.5v-395h-50v387q0 190 -106 306t-279 116q-113 0 -220.5 -48t-174.5 -128v-633h-49v1396h-520z" />
<glyph unicode="&#x40c;" horiz-adv-x="1135" d="M134 0v1443h50v-684h4l792 684h73l-814 -699l868 -744h-76l-843 723h-4v-723h-50zM500 1554l293 287h66l-303 -287h-56z" />
<glyph unicode="&#x40e;" horiz-adv-x="1114" d="M31 1443h57l484 -1025h5l452 1025h54l-474 -1072q-25 -56 -40.5 -89.5t-39.5 -79t-43 -72.5t-45.5 -56.5t-53 -45.5t-60 -26.5t-70.5 -10.5q-12 0 -23 1t-18 2.5t-12.5 2.5t-8.5 2l-3 1v47l3 -1q3 -1 9 -2.5t13 -2.5t18 -2t22 -1q40 0 75.5 17t62 42.5t55.5 70.5t49.5 85 t48.5 102zM318 1770h46q0 -83 58.5 -130t153.5 -47t153.5 47t58.5 130h46q0 -103 -70.5 -160t-187.5 -57t-187.5 57t-70.5 160z" />
<glyph unicode="&#x40f;" horiz-adv-x="1305" d="M134 0v1443h50v-1396h937v1396h50v-1443h-494v-285h-49v285h-494z" />
<glyph unicode="&#x410;" horiz-adv-x="1221" d="M30 0l555 1443h51l555 -1443h-56l-189 501h-671l-190 -501h-55zM293 547h635l-315 827h-5z" />
<glyph unicode="&#x411;" horiz-adv-x="1118" d="M134 0v1443h802v-47h-752v-577h405q212 0 338 -111t126 -298q0 -188 -125.5 -299t-338.5 -111h-455zM184 47h402q192 0 305 98t113 265q0 165 -113.5 263.5t-304.5 98.5h-402v-725z" />
<glyph unicode="&#x412;" horiz-adv-x="1159" d="M134 0v1443h464q188 0 305 -96.5t117 -252.5q0 -133 -78.5 -225.5t-214.5 -119.5v-4q161 -16 265.5 -113.5t104.5 -252.5q0 -174 -130 -276.5t-355 -102.5h-478zM184 46h426q204 0 321 90.5t117 243.5q0 157 -123 248t-337 91h-404v-673zM184 765h401q174 0 279.5 89.5 t105.5 238.5q0 137 -103 220.5t-273 83.5h-410v-632z" />
<glyph unicode="&#x413;" horiz-adv-x="1011" d="M134 0v1443h815v-47h-765v-1396h-50z" />
<glyph unicode="&#x414;" horiz-adv-x="1341" d="M11 47h93q138 67 158 407l60 989h816v-1396h189v-333h-49v286h-1218v-286h-49v333zM189 47h899v1349h-718l-57 -948q-17 -299 -124 -396v-5z" />
<glyph unicode="&#x415;" horiz-adv-x="1043" d="M134 0v1443h826v-47h-776v-632h740v-46h-740v-671h776v-47h-826z" />
<glyph unicode="&#x416;" horiz-adv-x="1756" d="M19 0l779 744l-727 699h72l706 -684h4v684h50v-684h4l706 684h69l-726 -698l781 -745h-74l-756 723h-4v-723h-50v723h-4l-757 -723h-73z" />
<glyph unicode="&#x417;" horiz-adv-x="1102" d="M62 356h50q10 -136 133 -233t301 -97q201 0 323 103.5t122 261.5q0 163 -117.5 250t-349.5 87h-166v46h166q192 0 302 89t110 235q0 135 -106 227.5t-279 92.5q-160 0 -268 -88t-127 -226h-49q19 159 139.5 260t304.5 101q194 0 314.5 -105t120.5 -261 q0 -132 -83.5 -223.5t-233.5 -119.5v-4q176 -12 274 -109t98 -252q0 -179 -135.5 -295.5t-361.5 -116.5q-200 0 -336 110t-146 267z" />
<glyph unicode="&#x418;" horiz-adv-x="1335" d="M134 0v1443h50v-1358h5l962 1358h50v-1443h-50v1358h-5l-962 -1358h-50z" />
<glyph unicode="&#x419;" horiz-adv-x="1335" d="M134 0v1443h50v-1358h5l962 1358h50v-1443h-50v1358h-5l-962 -1358h-50zM410 1770h46q0 -83 58.5 -130t153.5 -47t153.5 47t58.5 130h46q0 -103 -70.5 -160t-187.5 -57t-187.5 57t-70.5 160z" />
<glyph unicode="&#x41a;" horiz-adv-x="1136" d="M134 0v1443h50v-684h4l792 684h73l-814 -699l868 -744h-76l-843 723h-4v-723h-50z" />
<glyph unicode="&#x41b;" horiz-adv-x="1258" d="M17 0v47q1 -1 7.5 -3t20 -4t26.5 -2q54 0 94 31t64.5 90t38 131.5t19.5 166.5l60 986h777v-1443h-50v1396h-679l-57 -946q-6 -101 -20.5 -178t-44 -143.5t-80 -102t-120.5 -35.5q-9 0 -18 1t-15 2.5t-11.5 2.5t-8.5 2z" />
<glyph unicode="&#x41c;" horiz-adv-x="1596" d="M134 0v1443h53l609 -1380h4l606 1380h55v-1443h-49v1328h-4l-584 -1327h-53l-584 1327h-4v-1328h-49z" />
<glyph unicode="&#x41d;" horiz-adv-x="1316" d="M134 0v1443h50v-678h948v678h50v-1443h-50v718h-948v-718h-50z" />
<glyph unicode="&#x41e;" horiz-adv-x="1418" d="M73 722q0 340 172 540.5t464 200.5q291 0 463.5 -200.5t172.5 -540.5q0 -341 -172 -541.5t-464 -200.5q-293 0 -464.5 200.5t-171.5 541.5zM123 722q0 -318 159 -506.5t427 -188.5q267 0 426.5 188.5t159.5 506.5t-159 506t-427 188q-269 0 -427.5 -187.5t-158.5 -506.5z " />
<glyph unicode="&#x41f;" horiz-adv-x="1305" d="M134 0v1443h1037v-1443h-49v1396h-938v-1396h-50z" />
<glyph unicode="&#x420;" horiz-adv-x="1107" d="M134 0v1443h448q212 0 337.5 -114t125.5 -307t-126 -307t-338 -114h-397v-601h-50zM184 648h394q192 0 304.5 100.5t112.5 273.5q0 174 -112.5 274t-304.5 100h-394v-748z" />
<glyph unicode="&#x421;" horiz-adv-x="1322" d="M73 732q0 337 169.5 534t459.5 197q215 0 377 -137t181 -335h-49q-20 179 -167 302t-342 123q-266 0 -422.5 -184.5t-156.5 -499.5q0 -324 157.5 -514.5t421.5 -190.5q202 0 346 111.5t162 289.5h49q-17 -197 -174 -322.5t-383 -125.5q-287 0 -458 204t-171 548z" />
<glyph unicode="&#x422;" horiz-adv-x="1137" d="M23 1396v47h1091v-47h-521v-1396h-49v1396h-521z" />
<glyph unicode="&#x423;" horiz-adv-x="1114" d="M31 1443h57l484 -1025h5l452 1025h54l-474 -1072q-25 -56 -40.5 -89.5t-39.5 -79t-43 -72.5t-45.5 -56.5t-53 -45.5t-60 -26.5t-70.5 -10.5q-12 0 -23 1t-18 2.5t-12.5 2.5t-8.5 2l-3 1v47l3 -1q3 -1 9 -2.5t13 -2.5t18 -2t22 -1q40 0 75.5 17t62 42.5t55.5 70.5t49.5 85 t48.5 102z" />
<glyph unicode="&#x424;" horiz-adv-x="1498" d="M63 722q0 265 178 418.5t484 154.5v159h50v-159q305 -1 483 -155t178 -418q0 -265 -178 -419t-483 -154v-160h-50v160q-307 0 -484.5 153.5t-177.5 419.5zM113 722q0 -240 166.5 -383t445.5 -144v1053q-280 0 -446 -143t-166 -383zM775 195q278 1 444.5 144t166.5 383 t-166 383t-445 143v-1053z" />
<glyph unicode="&#x425;" horiz-adv-x="1210" d="M51 0l524 721v1l-523 721h60l493 -680h1l494 680h59l-523 -721l522 -722h-60l-492 680h-1l-495 -680h-59z" />
<glyph unicode="&#x426;" horiz-adv-x="1365" d="M134 0v1443h50v-1396h928v1396h50v-1396h189v-332h-49v285h-1168z" />
<glyph unicode="&#x427;" horiz-adv-x="1185" d="M105 1050v393h49v-385q0 -197 116.5 -310t298.5 -113q72 0 140 15.5t114.5 37t86 49t60 47t31.5 34.5v625h50v-1443h-50v753h-3q-26 -27 -62 -52.5t-88.5 -52.5t-125.5 -43.5t-153 -16.5q-206 0 -335 126.5t-129 335.5z" />
<glyph unicode="&#x428;" horiz-adv-x="1737" d="M134 0v1443h50v-1396h660v1396h49v-1396h660v1396h50v-1443h-1469z" />
<glyph unicode="&#x429;" horiz-adv-x="1806" d="M134 0v1443h50v-1396h660v1396h49v-1396h660v1396h50v-1396h189v-332h-49v285h-1609z" />
<glyph unicode="&#x42a;" horiz-adv-x="1356" d="M26 1396v47h407v-603h397q212 0 338 -113.5t126 -306.5q0 -192 -126 -306t-338 -114h-446v1396h-358zM433 47h394q191 0 304.5 101.5t113.5 271.5t-113.5 271.5t-304.5 101.5h-394v-746z" />
<glyph unicode="&#x42b;" horiz-adv-x="1462" d="M134 0v1443h50v-603h397q212 0 338 -113.5t126 -306.5q0 -192 -126 -306t-338 -114h-447zM184 47h394q191 0 304 101.5t113 271.5t-113.5 271.5t-303.5 101.5h-394v-746zM1278 0v1443h50v-1443h-50z" />
<glyph unicode="&#x42c;" horiz-adv-x="1107" d="M134 0v1443h50v-603h397q212 0 338 -113.5t126 -306.5q0 -192 -126 -306t-338 -114h-447zM184 47h394q191 0 304 101.5t113 271.5t-113.5 271.5t-303.5 101.5h-394v-746z" />
<glyph unicode="&#x42d;" horiz-adv-x="1334" d="M62 428h51q21 -175 170 -288t356 -113q262 0 416.5 187.5t155.5 503.5h-763v47h762q-11 298 -164.5 474.5t-406.5 176.5q-128 0 -243.5 -56t-191.5 -154t-91 -215h-51q16 131 98 239.5t209 170.5t270 62q288 0 455 -199.5t167 -541.5q0 -345 -166 -543.5t-456 -198.5 q-233 0 -394 124.5t-183 323.5z" />
<glyph unicode="&#x42e;" horiz-adv-x="1813" d="M134 0v1443h50v-678h325q11 325 175 512t440 187q286 0 451.5 -199t165.5 -543t-165.5 -543.5t-451.5 -199.5q-285 0 -450 198t-166 541h-324v-718h-50zM558 722q0 -318 153.5 -507t412.5 -189t412.5 189.5t153.5 506.5t-153.5 506t-412.5 189t-412.5 -189t-153.5 -506z " />
<glyph unicode="&#x42f;" horiz-adv-x="1119" d="M32 0l425 635q-171 22 -275 126.5t-104 273.5q0 190 124 299t340 109h442v-1443h-49v628h-425l-422 -628h-56zM127 1035q0 -167 112 -263.5t306 -96.5h390v721h-390q-194 0 -306 -96.5t-112 -264.5z" />
<glyph unicode="&#x430;" horiz-adv-x="1030" d="M100 286q0 137 96 214t284 92l389 30v97q0 153 -86.5 240t-238.5 87q-151 0 -244 -74t-114 -209h-47q17 153 126 241t279 88q173 0 273.5 -99.5t100.5 -270.5v-722h-49v245h-1q-39 -116 -153.5 -188.5t-258.5 -72.5q-157 0 -256.5 84.5t-99.5 217.5zM150 286 q0 -111 87.5 -183.5t221.5 -72.5q169 0 289.5 107.5t120.5 258.5v182l-381 -29q-165 -13 -251.5 -80t-86.5 -183z" />
<glyph unicode="&#x431;" horiz-adv-x="1114" d="M90 587q0 255 27.5 422.5t93 275.5t168 153.5t258.5 45.5q106 0 184 9q97 9 147 30v-43q-46 -21 -142 -32q-90 -10 -190 -10q-129 0 -215.5 -34t-146 -113.5t-91 -202.5t-46.5 -310h3q48 142 159.5 220.5t266.5 78.5q215 0 344 -148t129 -395q0 -251 -130 -402.5 t-345 -151.5q-226 0 -350 158.5t-124 448.5zM139 534q0 -231 116 -369.5t309 -138.5t309 139t116 369q0 226 -116 361.5t-309 135.5q-194 0 -309.5 -135.5t-115.5 -361.5z" />
<glyph unicode="&#x432;" horiz-adv-x="968" d="M130 0v1076h383q150 0 237.5 -69.5t87.5 -189.5q0 -101 -58 -169.5t-155 -85.5v-3q116 -9 194 -77.5t78 -183.5q0 -146 -97.5 -222t-279.5 -76h-390zM179 45h341q161 0 245 64t84 190q0 114 -91.5 174.5t-249.5 60.5h-329v-489zM179 580h328q129 0 205.5 64.5t76.5 171.5 q0 101 -73 157.5t-204 56.5h-333v-450z" />
<glyph unicode="&#x433;" horiz-adv-x="851" d="M130 0v1076h669v-45h-620v-1031h-49z" />
<glyph unicode="&#x434;" horiz-adv-x="1178" d="M25 45h83q59 38 89.5 141t45.5 263q28 307 44 627h682v-1031h179v-330h-49v285h-1026v-285h-48v330zM177 45h742v986h-586q-23 -386 -43 -588q-14 -148 -38.5 -245t-74.5 -150v-3z" />
<glyph unicode="&#x435;" horiz-adv-x="1076" d="M75 538q0 250 128 402t340 152q205 0 331.5 -143t126.5 -375v-38h-876v-2q0 -237 116 -370.5t311 -133.5q156 0 257.5 75t126.5 194h51q-28 -140 -144 -227.5t-292 -87.5q-219 0 -347.5 147t-128.5 407zM126 581h825q0 207 -112.5 336t-295.5 129q-180 0 -294 -127.5 t-123 -337.5z" />
<glyph unicode="&#x436;" horiz-adv-x="1383" d="M27 0l588 559l-560 517h70l538 -498h2v498h49v-498h3l537 498h70l-559 -515l591 -561h-73l-566 539h-3v-539h-49v539h-2l-566 -539h-70z" />
<glyph unicode="&#x437;" horiz-adv-x="926" d="M65 272h49q25 -107 119 -176.5t243 -69.5q148 0 237 69t89 189q0 122 -91 184.5t-249 62.5h-176v45h176q141 0 222 64.5t81 172.5q0 105 -78.5 168t-210.5 63q-142 0 -230 -72t-114 -187h-49q27 134 126.5 219.5t265.5 85.5q157 0 248 -75t91 -203q0 -98 -64.5 -166 t-163.5 -87v-4q113 -12 189 -80.5t76 -186.5q0 -147 -102 -227.5t-273 -80.5q-170 0 -277 80t-134 212z" />
<glyph unicode="&#x438;" horiz-adv-x="1086" d="M130 0v1076h49v-997h3l725 997h49v-1076h-49v996h-3l-725 -996h-49z" />
<glyph unicode="&#x439;" horiz-adv-x="1086" d="M130 0v1076h49v-997h3l725 997h49v-1076h-49v996h-3l-725 -996h-49zM307 1490h47q0 -93 56.5 -144.5t155.5 -51.5q98 0 154.5 52t56.5 144h47q0 -111 -69 -174t-189 -63q-121 0 -190 63t-69 174z" />
<glyph unicode="&#x43a;" horiz-adv-x="924" d="M130 0v1076h49v-498h3l612 498h72l-632 -517l664 -559h-75l-641 539h-3v-539h-49z" />
<glyph unicode="&#x43b;" horiz-adv-x="1083" d="M21 0v47q0 -1 6.5 -3t20 -4t27.5 -2q45 0 77 30.5t52 90.5t31.5 127.5t19.5 162.5q23 258 42 627h656v-1076h-49v1031h-561q-26 -438 -40 -588q-6 -68 -13 -118t-18.5 -105.5t-28 -93.5t-39 -70.5t-55.5 -48.5t-74 -16q-9 0 -17.5 1t-15 2.5t-11 2.5t-7.5 2z" />
<glyph unicode="&#x43c;" horiz-adv-x="1360" d="M130 0v1076h54l497 -1013h3l492 1013h54v-1076h-49v976h-3l-477 -974h-41l-478 974h-3v-976h-49z" />
<glyph unicode="&#x43d;" horiz-adv-x="1075" d="M130 0v1076h49v-496h717v496h50v-1076h-50v535h-717v-535h-49z" />
<glyph unicode="&#x43e;" horiz-adv-x="1098" d="M75 538q0 253 130.5 403.5t343.5 150.5t343.5 -150.5t130.5 -403.5t-130.5 -403.5t-343.5 -150.5q-214 0 -344 150.5t-130 403.5zM125 538q0 -233 116 -370t308 -137t308.5 137.5t116.5 369.5q0 233 -116.5 370.5t-308.5 137.5t-308 -137.5t-116 -370.5z" />
<glyph unicode="&#x43f;" horiz-adv-x="1065" d="M130 0v1076h806v-1076h-50v1031h-707v-1031h-49z" />
<glyph unicode="&#x440;" horiz-adv-x="1126" d="M130 -340v1416h46v-321h2q34 145 148.5 241t270.5 96q201 0 327.5 -154t126.5 -400q0 -247 -126 -400.5t-328 -153.5q-155 0 -269 94.5t-147 236.5h-2v-655h-49zM179 538q0 -224 116 -365.5t299 -141.5q181 0 294.5 140.5t113.5 365.5q0 226 -113.5 367.5t-294.5 141.5 q-183 0 -299 -142t-116 -366z" />
<glyph unicode="&#x441;" horiz-adv-x="1025" d="M66 538q0 254 127 404t341 150q158 0 272.5 -86.5t147.5 -224.5h-51q-32 118 -131.5 191.5t-236.5 73.5q-193 0 -306.5 -137.5t-113.5 -370.5t113 -370t307 -137q135 0 233 67t131 178h51q-34 -132 -146 -212t-269 -80q-215 0 -342 149.5t-127 404.5z" />
<glyph unicode="&#x442;" horiz-adv-x="937" d="M40 1031v45h857v-45h-404v-1031h-49v1031h-404z" />
<glyph unicode="&#x443;" horiz-adv-x="927" d="M21 1076h54l387 -1029h2l388 1029h54l-417 -1101q-74 -195 -130 -256.5t-162 -61.5q-26 0 -47 9v47q22 -9 53 -9q70 0 115.5 46t89.5 159l28 72z" />
<glyph unicode="&#x444;" horiz-adv-x="1364" d="M75 534q0 253 158 400t425 155v383h49v-383q267 -8 424.5 -154.5t157.5 -399.5q0 -252 -158 -399.5t-424 -155.5v-373h-49v373q-267 8 -425 155t-158 399zM124 534q0 -230 145.5 -365t388.5 -143v1017q-243 -7 -388.5 -142.5t-145.5 -366.5zM707 26q242 8 387 143.5 t145 365.5t-145 365.5t-387 142.5v-1017z" />
<glyph unicode="&#x445;" horiz-adv-x="889" d="M12 0l403 548l-402 528h62l369 -489h2l369 489h62l-402 -527l401 -549h-60l-370 506h-3l-370 -506h-61z" />
<glyph unicode="&#x446;" horiz-adv-x="1145" d="M130 0v1076h49v-1031h707v1031h49v-1031h179v-330h-48v285h-936z" />
<glyph unicode="&#x447;" horiz-adv-x="990" d="M100 798v278h49v-265q0 -163 87 -258t242 -95q108 0 197 48.5t136 126.5v443h49v-1076h-49v558h-2q-53 -68 -140.5 -107t-190.5 -39q-177 0 -277.5 106t-100.5 280z" />
<glyph unicode="&#x448;" horiz-adv-x="1562" d="M130 0v1076h49v-1031h577v1031h50v-1031h577v1031h49v-1076h-1302z" />
<glyph unicode="&#x449;" horiz-adv-x="1642" d="M130 0v1076h49v-1031h577v1031h50v-1031h577v1031h49v-1031h180v-330h-49v285h-1433z" />
<glyph unicode="&#x44a;" horiz-adv-x="1105" d="M40 1031v45h339v-408h295q165 0 263 -90.5t98 -243.5t-98 -243.5t-263 -90.5h-344v1031h-290zM379 45h295q142 0 226.5 78.5t84.5 210.5q0 131 -84.5 209.5t-226.5 78.5h-295v-577z" />
<glyph unicode="&#x44b;" horiz-adv-x="1223" d="M130 0v1076h49v-408h295q164 0 262.5 -90.5t98.5 -243.5q0 -152 -99 -243t-262 -91h-344zM179 45h295q142 0 226.5 78.5t84.5 210.5q0 131 -84.5 209.5t-226.5 78.5h-295v-577zM1044 0v1076h49v-1076h-49z" />
<glyph unicode="&#x44c;" horiz-adv-x="905" d="M130 0v1076h49v-408h295q164 0 262.5 -90.5t98.5 -243.5q0 -152 -99 -243t-262 -91h-344zM179 45h295q142 0 226.5 78.5t84.5 210.5q0 131 -84.5 209.5t-226.5 78.5h-295v-577z" />
<glyph unicode="&#x44d;" horiz-adv-x="1037" d="M74 781q33 137 150 224t274 87q214 0 339 -149.5t125 -404.5t-124.5 -404.5t-339.5 -149.5q-157 0 -271.5 80.5t-148.5 211.5h51q33 -110 133.5 -177.5t235.5 -67.5q193 0 303.5 136t110.5 368h-595v45h594q-11 215 -120.5 340.5t-292.5 125.5q-138 0 -240 -73.5 t-134 -191.5h-50z" />
<glyph unicode="&#x44e;" horiz-adv-x="1480" d="M130 0v1076h49v-496h299q12 236 137 373t325 137q212 0 338.5 -150.5t126.5 -405.5t-126.5 -404.5t-338.5 -149.5q-211 0 -337 149.5t-127 405.5h-297v-535h-49zM526 534q0 -232 113.5 -370t300.5 -138t301 138.5t114 369.5q0 233 -114 371t-301 138t-300.5 -138 t-113.5 -371z" />
<glyph unicode="&#x44f;" horiz-adv-x="935" d="M59 0l342 451q-147 11 -232.5 93.5t-85.5 216.5q0 145 97.5 230t262.5 85h363v-1076h-50v448h-297l-339 -448h-61zM132 761q0 -121 85 -194t226 -73h313v537h-313q-142 0 -226.5 -73.5t-84.5 -196.5z" />
<glyph unicode="&#x451;" horiz-adv-x="1076" d="M75 538q0 250 128 402t340 152q205 0 331.5 -143t126.5 -375v-38h-876v-2q0 -237 116 -370.5t311 -133.5q156 0 257.5 75t126.5 194h51q-28 -140 -144 -227.5t-292 -87.5q-219 0 -347.5 147t-128.5 407zM126 581h825q0 207 -112.5 336t-295.5 129q-180 0 -294 -127.5 t-123 -337.5zM349 1308q0 22 16 37.5t39 15.5q22 0 38 -15.5t16 -37.5t-16 -38t-38 -16t-38.5 16t-16.5 38zM628 1308q0 22 16 37.5t38 15.5q23 0 39 -15.5t16 -37.5t-16.5 -38t-38.5 -16t-38 16t-16 38z" />
<glyph unicode="&#x452;" horiz-adv-x="1133" d="M30 1280v44h148v186h50v-186h297v-44h-297v-449h4q39 120 141.5 190.5t237.5 70.5q177 0 288 -105.5t111 -282.5v-784q0 -140 -65 -201t-198 -61h-29v45h27q113 0 164.5 50t51.5 163v778q0 158 -101 255t-253 97q-162 0 -270.5 -112.5t-108.5 -291.5v-642h-50v1280h-148z " />
<glyph unicode="&#x453;" horiz-adv-x="851" d="M130 0v1076h669v-45h-620v-1031h-49zM404 1254l236 303h63l-246 -303h-53z" />
<glyph unicode="&#x454;" horiz-adv-x="1056" d="M84 538q0 254 127 404t342 150q157 0 271.5 -87t147.5 -224h-50q-32 118 -132 191.5t-237 73.5q-184 0 -295.5 -125.5t-122.5 -340.5h594v-45h-595q1 -232 113.5 -368t305.5 -136q135 0 233 67t132 178h51q-35 -132 -147 -212t-269 -80q-215 0 -342 149.5t-127 404.5z " />
<glyph unicode="&#x455;" horiz-adv-x="925" d="M66 304h50q10 -115 109 -194.5t242 -79.5q145 0 243.5 68.5t98.5 177.5q0 93 -62 148t-205 89l-169 39q-138 33 -204.5 94t-66.5 162q0 124 105 204t257 80q161 0 262.5 -88.5t115.5 -239.5h-48q-14 126 -101.5 204t-228.5 78q-129 0 -221 -67t-92 -170q0 -85 57 -133.5 t182 -77.5l167 -40q160 -39 231 -104.5t71 -174.5q0 -131 -110 -213t-281 -82q-169 0 -281.5 92.5t-120.5 227.5z" />
<glyph unicode="&#x456;" horiz-adv-x="355" d="M129 1414q0 20 14.5 34t34.5 14t34 -14t14 -34t-14 -34t-34 -14t-34.5 14t-14.5 34zM153 0v1076h49v-1076h-49z" />
<glyph unicode="&#x457;" horiz-adv-x="329" d="M-29 1308q0 22 16 37.5t39 15.5q22 0 38 -15.5t16 -37.5t-16 -38t-38 -16t-38.5 16t-16.5 38zM140 0v1076h49v-1076h-49zM250 1308q0 22 16 37.5t38 15.5q23 0 39 -15.5t16 -37.5t-16.5 -38t-38.5 -16t-38 16t-16 38z" />
<glyph unicode="&#x458;" horiz-adv-x="330" d="M-103 -297h27q113 0 164.5 50t51.5 163v1160h49v-1156q0 -139 -65 -200.5t-198 -61.5h-29v45zM116 1414q0 20 14.5 34t34.5 14t34 -14t14 -34t-14.5 -34t-33.5 -14q-20 0 -34.5 14t-14.5 34z" />
<glyph unicode="&#x459;" horiz-adv-x="1678" d="M21 0v47q0 -1 6.5 -3t20 -4t27.5 -2q45 0 77 30.5t52 90.5t31.5 127.5t19.5 162.5q23 258 42 627h656v-408h295q165 0 262.5 -90t97.5 -244q0 -153 -97.5 -243.5t-262.5 -90.5h-344v1031h-561q-26 -438 -40 -588q-6 -68 -13 -118t-18.5 -105.5t-28 -93.5t-39 -70.5 t-55.5 -48.5t-74 -16q-9 0 -17.5 1t-15 2.5t-11 2.5t-7.5 2zM953 45h295q142 0 226.5 78.5t84.5 210.5q0 131 -84.5 209.5t-226.5 78.5h-295v-577z" />
<glyph unicode="&#x45a;" horiz-adv-x="1651" d="M130 0v1076h49v-471h697v471h50v-469h295q165 0 262.5 -82t97.5 -221t-97.5 -221.5t-262.5 -82.5h-345v560h-697v-560h-49zM926 45h295q142 0 226.5 70.5t84.5 188.5q0 119 -84.5 188.5t-226.5 69.5h-295v-517z" />
<glyph unicode="&#x45b;" horiz-adv-x="1133" d="M30 1280v44h148v186h50v-186h297v-44h-297v-449h4q39 120 141.5 190.5t237.5 70.5q177 0 288 -105.5t111 -282.5v-704h-49v694q0 158 -101 255t-253 97q-162 0 -270.5 -112.5t-108.5 -291.5v-642h-50v1280h-148z" />
<glyph unicode="&#x45c;" horiz-adv-x="924" d="M130 0v1076h49v-498h3l612 498h72l-632 -517l664 -559h-75l-641 539h-3v-539h-49zM418 1254l236 303h63l-246 -303h-53z" />
<glyph unicode="&#x45e;" horiz-adv-x="927" d="M21 1076h54l387 -1029h2l388 1029h54l-417 -1101q-74 -195 -130 -256.5t-162 -61.5q-26 0 -47 9v47q22 -9 53 -9q70 0 115.5 46t89.5 159l28 72zM226 1490h47q0 -93 56.5 -144.5t155.5 -51.5q98 0 154.5 52t56.5 144h47q0 -111 -69 -174t-189 -63q-121 0 -190 63t-69 174 z" />
<glyph unicode="&#x45f;" horiz-adv-x="1065" d="M130 0v1076h49v-1031h707v1031h50v-1076h-379v-285h-49v285h-378z" />
<glyph unicode="&#x490;" horiz-adv-x="1011" d="M134 0v1443h766v250h49v-297h-765v-1396h-50z" />
<glyph unicode="&#x491;" horiz-adv-x="851" d="M130 0v1076h621v250h48v-295h-620v-1031h-49z" />
<glyph unicode="&#x2000;" horiz-adv-x="920" />
<glyph unicode="&#x2001;" horiz-adv-x="1841" />
<glyph unicode="&#x2002;" horiz-adv-x="920" />
<glyph unicode="&#x2003;" horiz-adv-x="1841" />
<glyph unicode="&#x2004;" horiz-adv-x="613" />
<glyph unicode="&#x2005;" horiz-adv-x="460" />
<glyph unicode="&#x2006;" horiz-adv-x="306" />
<glyph unicode="&#x2007;" horiz-adv-x="306" />
<glyph unicode="&#x2008;" horiz-adv-x="230" />
<glyph unicode="&#x2009;" horiz-adv-x="368" />
<glyph unicode="&#x200a;" horiz-adv-x="102" />
<glyph unicode="&#x2010;" horiz-adv-x="865" d="M104 554v47h656v-47h-656z" />
<glyph unicode="&#x2011;" horiz-adv-x="865" d="M104 554v47h656v-47h-656z" />
<glyph unicode="&#x2012;" horiz-adv-x="865" d="M104 554v47h656v-47h-656z" />
<glyph unicode="&#x2013;" horiz-adv-x="1024" d="M0 564v46h1024v-46h-1024z" />
<glyph unicode="&#x2014;" horiz-adv-x="2048" d="M0 564v46h2048v-46h-2048z" />
<glyph unicode="&#x2018;" horiz-adv-x="365" d="M89 1443h50l131 -445h-48z" />
<glyph unicode="&#x2019;" horiz-adv-x="365" d="M95 998l131 445h50l-133 -445h-48z" />
<glyph unicode="&#x201a;" horiz-adv-x="384" d="M99 -353l132 445h49l-133 -445h-48z" />
<glyph unicode="&#x201c;" horiz-adv-x="597" d="M99 1443h49l113 -445h-48zM330 1443h50l113 -445h-48z" />
<glyph unicode="&#x201d;" horiz-adv-x="597" d="M104 998l113 445h49l-114 -445h-48zM336 998l113 445h49l-114 -445h-48z" />
<glyph unicode="&#x201e;" horiz-adv-x="597" d="M99 -353l113 445h49l-114 -445h-48zM331 -353l113 445h49l-114 -445h-48z" />
<glyph unicode="&#x2020;" horiz-adv-x="943" d="M114 1044v46h336v310h48v-310h332v-46h-332v-716h-48v716h-336z" />
<glyph unicode="&#x2021;" horiz-adv-x="943" d="M114 644v45h337v358h-337v45h336v308h48v-308h332v-45h-332v-358h332v-45h-332v-316h-48v316h-336z" />
<glyph unicode="&#x2022;" horiz-adv-x="943" d="M287 596q0 76 54.5 130.5t130.5 54.5t130.5 -54.5t54.5 -130.5t-54.5 -130.5t-130.5 -54.5t-130.5 54.5t-54.5 130.5z" />
<glyph unicode="&#x2026;" horiz-adv-x="1443" d="M187 47q0 24 17 41t40 17q24 0 40.5 -17t16.5 -41q0 -23 -16.5 -40t-40.5 -17q-23 0 -40 17t-17 40zM665 47q0 24 16.5 41t40.5 17q23 0 40 -17t17 -41q0 -23 -17 -40t-40 -17q-24 0 -40.5 17t-16.5 40zM1142 47q0 24 17 41t40 17q24 0 40.5 -17t16.5 -41 q0 -23 -16.5 -40t-40.5 -17q-23 0 -40 17t-17 40z" />
<glyph unicode="&#x202f;" horiz-adv-x="368" />
<glyph unicode="&#x2030;" horiz-adv-x="1962" d="M50 1110q0 156 63.5 248.5t175.5 92.5t175.5 -92.5t63.5 -248.5t-63.5 -248.5t-175.5 -92.5t-175.5 92.5t-63.5 248.5zM98 1110q0 -136 50.5 -217.5t140.5 -81.5q89 0 139.5 81t50.5 218q0 136 -50.5 217.5t-139.5 81.5t-140 -81.5t-51 -217.5zM123 0l1081 1443h59 l-1081 -1443h-59zM867 331q0 156 63.5 248.5t175.5 92.5t175.5 -92.5t63.5 -248.5t-63.5 -248.5t-175.5 -92.5t-175.5 92.5t-63.5 248.5zM915 331q0 -136 50.5 -217.5t140.5 -81.5q89 0 139.5 81t50.5 218q0 136 -50.5 217.5t-139.5 81.5t-140 -81.5t-51 -217.5zM1434 331 q0 156 63.5 248.5t175.5 92.5t175.5 -92.5t63.5 -248.5t-63.5 -248.5t-175.5 -92.5t-175.5 92.5t-63.5 248.5zM1482 331q0 -136 50.5 -217.5t140.5 -81.5q89 0 139.5 81t50.5 218q0 136 -50.5 217.5t-139.5 81.5t-140 -81.5t-51 -217.5z" />
<glyph unicode="&#x2039;" horiz-adv-x="755" d="M158 566v4l376 408h63l-370 -407v-6l370 -407h-63z" />
<glyph unicode="&#x203a;" horiz-adv-x="755" d="M158 158l370 407v6l-370 407h63l376 -408v-4l-376 -408h-63z" />
<glyph unicode="&#x2044;" horiz-adv-x="226" d="M-457 0l1081 1443h59l-1081 -1443h-59z" />
<glyph unicode="&#x205f;" horiz-adv-x="460" />
<glyph unicode="&#x20ac;" d="M41 558v45h265q-7 53 -7 119q0 48 5 103h-263v44h268q28 189 128 325.5t244 202.5t317 66q88 0 138 -11v-48q-48 12 -138 12q-159 0 -292 -61t-225.5 -186t-120.5 -300h594v-44h-600q-5 -55 -5 -103q0 -66 7 -119h598v-45h-591q30 -169 123 -291t224 -181t288 -59 q90 0 138 12v-48q-50 -11 -138 -11q-262 0 -450.5 151.5t-235.5 426.5h-271z" />
<glyph unicode="&#x2122;" horiz-adv-x="1850" d="M94 1399v44h686v-44h-319v-814h-48v814h-319zM953 585v858h53l351 -754h1l345 754h52v-858h-46v765h-1l-332 -721h-38l-338 721h-1v-765h-46z" />
<glyph unicode="&#x2202;" horiz-adv-x="1254" d="M188 431q0 140 60 255.5t165 182t232 66.5q107 0 208.5 -54t160.5 -142h7q0 221 -71.5 394t-204.5 277t-310 123l11 45q287 -33 453.5 -256.5t166.5 -576.5q0 -346 -130.5 -556t-345.5 -210q-170 0 -286 130.5t-116 321.5zM238 429q0 -170 103 -286.5t253 -116.5 q120 0 217 85.5t151.5 235.5t54.5 336q-63 96 -161 150.5t-207 54.5q-175 0 -293 -132t-118 -327z" />
<glyph unicode="&#x220f;" horiz-adv-x="1275" d="M108 1396v47h1059v-47h-181v-1416h-50v1416h-597v-1416h-50v1416h-181z" />
<glyph unicode="&#x2211;" horiz-adv-x="1118" d="M114 -234l530 850v1l-528 780v46h890v-46h-830v-1l525 -779v-1l-528 -849v-1h830v-46h-889v46z" />
<glyph unicode="&#x221a;" horiz-adv-x="1435" d="M66 706h53l306 -855h5l491 1592h453v-47h-419l-499 -1617h-56z" />
<glyph unicode="&#x221e;" horiz-adv-x="1824" d="M107 609q0 157 104 259.5t263 102.5q124 0 226.5 -75t211.5 -246q109 170 211.5 245t226.5 75q159 0 263.5 -102.5t104.5 -259.5q0 -156 -101.5 -258.5t-256.5 -102.5q-266 0 -448 324q-182 -324 -447 -324q-155 0 -256.5 102.5t-101.5 259.5zM156 606q0 -138 85 -225 t220 -87q244 0 422 315q-108 169 -202.5 241.5t-207.5 72.5q-139 0 -228 -88.5t-89 -228.5zM942 608q180 -314 421 -314q135 0 220.5 87t85.5 225q0 140 -89 228.5t-229 88.5q-113 0 -208 -73t-201 -242z" />
<glyph unicode="&#x222b;" horiz-adv-x="1113" d="M108 -252l5 45q58 -12 101 -12q91 0 140.5 47t68.5 154l217 1247q23 132 86 189t179 57q42 0 100 -12l-6 -45q-56 12 -100 12q-91 0 -141 -47t-69 -154l-216 -1248q-23 -131 -86 -188t-179 -57q-50 0 -100 12z" />
<glyph unicode="&#x2248;" d="M190 225q0 127 55 192t155 65q79 0 203 -120q122 -113 177 -113q161 0 162 211h47q0 -126 -55.5 -191t-155.5 -65q-78 0 -202 120q-119 112 -178 112q-161 0 -161 -211h-47zM190 581q0 127 55 192t155 65q79 0 203 -120q121 -112 177 -112q161 0 162 211h47 q0 -127 -55.5 -192t-155.5 -65q-76 0 -202 120q-119 112 -178 112q-161 0 -161 -211h-47z" />
<glyph unicode="&#x2260;" d="M106 368v46h399l132 327h-531v46h549l128 319h48l-128 -319h370v-46h-388l-132 -327h520v-46h-538l-139 -346h-48l139 346h-381z" />
<glyph unicode="&#x2264;" d="M138 113v46h902v-46h-902zM138 721v45l902 365v-55l-838 -330v-5l838 -330v-54z" />
<glyph unicode="&#x2265;" d="M138 113v46h902v-46h-902zM138 357v54l838 330v5l-838 330v55l902 -365v-45z" />
<glyph unicode="&#x25ca;" horiz-adv-x="1132" d="M108 652l432 709h52l432 -709l-432 -710h-52zM168 652l396 -655h4l396 655l-396 654h-4z" />
<glyph unicode="&#x25fc;" horiz-adv-x="1075" d="M0 0v1075h1075v-1075h-1075z" />
<glyph unicode="&#xf8ff;" horiz-adv-x="1838" d="M182 791q-3 188 76 324q60 102 160 164t214 64q51 2 109 -18.5t108 -41.5t78 -21q27 0 83 20t127 40.5t134 20.5q31 0 66 -6t84.5 -22.5t99 -55.5t85.5 -95q-149 -93 -187 -249q-12 -47 -12 -97q3 -75 29 -140t60 -104t70.5 -67t59 -39.5t26.5 -11.5q-1 -1 -6 -16 t-14.5 -40t-23 -55.5t-35.5 -70t-48 -75.5q-34 -51 -58.5 -83t-60 -68.5t-75 -54t-83.5 -17.5q-56 0 -140 37t-154 37q-61 0 -112 -18.5t-95.5 -37t-89.5 -18.5q-44 0 -84.5 18.5t-78 56.5t-62.5 69.5t-62 83.5q-79 114 -132.5 272.5t-55.5 314.5zM917 1366q-26 131 91 277 q52 61 127 98.5t145 37.5q9 -163 -101 -283q-47 -63 -119.5 -101t-142.5 -29z" />
<glyph unicode="&#xfb01;" horiz-adv-x="818" d="M20 1031v45h150v169q0 123 58.5 181.5t164.5 58.5q47 0 74 -10v-46q-30 10 -73 10q-174 0 -174 -201v-162h237v-45h-237v-1031h-50v1031h-150zM615 1414q0 20 14.5 34t34.5 14t34 -14t14 -34t-14 -34t-34 -14t-34.5 14t-14.5 34zM639 0v1076h49v-1076h-49z" />
<glyph unicode="&#xfb02;" horiz-adv-x="818" d="M20 1031v45h150v169q0 123 58.5 181.5t164.5 58.5q47 0 74 -10v-46q-30 10 -73 10q-174 0 -174 -201v-162h237v-45h-237v-1031h-50v1031h-150zM639 0v1506h49v-1506h-49z" />
</font>
</defs>
</svg>
